<?xml version="1.0" standalone="no"?>
<svg version="1.0" xmlns="http://www.w3.org/2000/svg"
 width="512" height="512" viewBox="0 0 1024 1024"
 preserveAspectRatio="xMidYMid meet">
<defs>
  <!-- Dark background radial gradient -->
  <radialGradient id="bgGrad" cx="50%" cy="45%" r="52%">
    <stop offset="0%" stop-color="#252d40"/>
    <stop offset="100%" stop-color="#131825"/>
  </radialGradient>

  <!-- Brace gradient: cyan top to purple bottom -->
  <linearGradient id="braceGrad" x1="0" y1="0" x2="0" y2="1">
    <stop offset="0%" stop-color="#7ad4ff"/>
    <stop offset="40%" stop-color="#6aabf7"/>
    <stop offset="100%" stop-color="#8b5cf6"/>
  </linearGradient>

  <!-- Neon glow filter for braces -->
  <filter id="neonGlow" x="-15%" y="-15%" width="130%" height="130%">
    <feGaussianBlur in="SourceGraphic" stdDeviation="12" result="blur1"/>
    <feGaussianBlur in="SourceGraphic" stdDeviation="25" result="blur2"/>
    <feGaussianBlur in="SourceGraphic" stdDeviation="4" result="blur3"/>
    <feMerge>
      <feMergeNode in="blur2"/>
      <feMergeNode in="blur1"/>
      <feMergeNode in="blur3"/>
      <feMergeNode in="SourceGraphic"/>
    </feMerge>
  </filter>

  <!-- Subtle outer shadow for the circle -->
  <filter id="circleShadow" x="-5%" y="-3%" width="110%" height="110%">
    <feDropShadow dx="0" dy="2" stdDeviation="6" flood-color="#000" flood-opacity="0.3"/>
  </filter>
</defs>



<!-- === LAYER 1: Gradient circle behind (shows through brace/caret cutouts) === -->
<g transform="translate(0.000000,1024.000000) scale(0.100000,-0.100000)">
  <circle cx="5120" cy="5100" r="4450" fill="url(#braceGrad)" filter="url(#neonGlow)"/>
</g>

<!-- === LAYER 2: White circle behind (shows through text cutouts) === -->
<!-- We overlay white in the text region so RDN text appears white, not gradient -->
<rect x="340" y="440" width="345" height="150" rx="8" fill="#ffffff" opacity="0.97"/>

<!-- === LAYER 3: Main dark shape (circle with cutouts for braces, carets, text) === -->
<g transform="translate(0.000000,1024.000000) scale(0.100000,-0.100000)"
fill="url(#bgGrad)" stroke="none">
<path d="M4795 10229 c-729 -55 -1366 -227 -1967 -530 -722 -364 -1350 -893
-1830 -1539 -502 -676 -808 -1425 -947 -2320 -41 -257 -60 -714 -42 -990 76
-1185 485 -2202 1233 -3070 670 -777 1585 -1352 2553 -1605 868 -227 1769
-230 2620 -10 729 189 1396 536 2010 1046 55 45 204 186 331 313 480 481 824
990 1081 1600 231 547 351 1076 393 1721 40 623 -53 1297 -265 1930 -368 1101
-1128 2059 -2131 2687 -683 428 -1402 671 -2225 753 -187 19 -650 27 -814 14z
m-1497 -3058 c51 -28 62 -64 62 -216 0 -217 -20 -240 -218 -255 -202 -16 -275
-58 -309 -181 -19 -68 -41 -88 -79 -70 -19 9 -24 18 -24 50 0 117 93 233 218
271 37 12 117 26 177 32 61 6 116 16 123 21 19 15 17 241 -3 257 -21 17 -295
7 -395 -15 -286 -63 -451 -234 -501 -520 -6 -33 -14 -215 -19 -405 -7 -300
-11 -355 -28 -419 -58 -211 -188 -352 -380 -415 -42 -13 -92 -28 -110 -31 -18
-4 -37 -15 -43 -26 -13 -26 -10 -234 5 -253 6 -8 47 -24 91 -36 168 -45 313
-154 383 -287 66 -126 74 -179 82 -573 6 -256 12 -373 23 -420 72 -310 251
-455 617 -500 117 -14 263 -13 278 2 8 8 12 51 12 129 0 146 -2 149 -103 149
-170 0 -302 47 -364 128 -65 85 -73 138 -73 466 0 409 -15 526 -85 671 -67
138 -193 260 -342 331 -65 30 -73 37 -73 62 0 39 6 44 97 92 210 108 348 308
384 558 14 99 21 112 59 112 43 0 54 -21 46 -94 -15 -152 -85 -330 -173 -444
-48 -62 -146 -151 -205 -185 -21 -12 -38 -25 -38 -28 0 -3 32 -27 70 -53 125
-86 230 -217 287 -358 55 -136 64 -213 71 -613 7 -362 7 -371 31 -418 25 -51
73 -90 132 -108 19 -5 91 -14 161 -18 139 -9 164 -18 198 -74 17 -28 20 -51
20 -172 0 -157 -10 -187 -72 -225 -39 -23 -150 -27 -317 -10 -240 25 -400 89
-522 210 -83 82 -120 138 -157 239 -46 128 -53 188 -61 561 -9 381 -13 413
-68 528 -54 115 -188 215 -329 247 -97 22 -121 33 -147 69 -20 28 -22 45 -25
173 -4 128 -2 147 17 185 26 54 45 66 143 89 208 50 333 171 384 373 12 46 18
148 24 416 9 378 15 433 66 569 77 205 254 355 489 414 172 44 449 53 513 18z
m4202 5 c261 -48 447 -172 538 -360 78 -159 91 -250 101 -661 9 -368 20 -437
84 -543 63 -106 196 -195 332 -222 134 -27 148 -49 152 -230 4 -218 -12 -250
-148 -281 -160 -38 -296 -135 -353 -251 -54 -111 -58 -147 -66 -528 -6 -277
-11 -373 -24 -434 -80 -369 -301 -538 -754 -577 -170 -14 -243 -10 -279 17
-53 40 -63 63 -69 169 -10 179 13 256 86 281 19 7 89 16 155 22 133 10 196 31
241 79 57 60 58 67 65 473 7 397 13 448 62 582 13 37 40 93 58 125 44 74 157
194 236 250 35 25 63 46 63 49 0 2 -26 21 -57 42 -195 133 -320 335 -355 577
-14 97 -8 118 36 123 36 5 56 -14 56 -52 1 -66 41 -214 81 -296 59 -120 185
-245 317 -313 88 -46 92 -50 92 -81 0 -37 -9 -46 -60 -66 -120 -46 -286 -202
-345 -324 -70 -145 -77 -197 -85 -616 -6 -358 -8 -378 -30 -440 -16 -45 -37
-78 -70 -111 -64 -64 -133 -88 -290 -101 -77 -6 -130 -15 -139 -24 -10 -9 -14
-42 -14 -129 0 -159 -11 -151 195 -137 361 24 539 115 643 326 70 141 76 180
85 586 8 384 15 439 74 562 71 148 224 266 407 313 35 9 68 21 73 26 5 5 9 66
7 136 -2 138 -8 153 -58 153 -33 0 -158 45 -212 77 -75 44 -166 138 -205 213
-70 132 -78 184 -86 565 -8 352 -16 429 -59 548 -41 119 -126 226 -225 286
-119 71 -334 121 -524 121 -122 0 -122 0 -122 -145 0 -134 6 -145 80 -145 78
0 199 -20 259 -42 73 -28 151 -105 174 -172 24 -72 23 -132 -4 -147 -38 -20
-64 2 -78 64 -17 78 -46 117 -112 150 -47 23 -76 30 -185 38 -138 12 -171 23
-208 72 -19 26 -21 42 -21 182 0 140 2 156 21 182 42 57 73 65 234 59 80 -2
183 -12 230 -20z m-4687 -913 c77 -122 237 -403 237 -416 0 -34 -12 -47 -45
-47 -32 0 -36 5 -134 170 -56 94 -106 170 -111 170 -4 0 -50 -72 -101 -161
-108 -186 -134 -213 -173 -173 -9 8 -16 24 -16 35 0 11 59 119 131 239 122
206 132 220 160 220 22 0 34 -8 52 -37z m4845 10 c10 -16 36 -59 57 -98 21
-38 71 -125 112 -191 76 -126 84 -152 57 -178 -41 -42 -59 -23 -184 192 -45
78 -86 142 -91 142 -4 0 -45 -62 -90 -137 -106 -178 -125 -203 -153 -203 -27
0 -46 18 -46 44 0 17 190 354 242 429 14 19 28 27 48 27 20 0 34 -8 48 -27z
m-3548 -614 c133 -21 228 -88 282 -197 31 -63 33 -72 33 -177 0 -97 -3 -116
-25 -160 -30 -62 -101 -134 -157 -161 l-43 -19 130 -195 131 -195 -93 -3 c-82
-3 -95 -1 -108 17 -8 10 -62 92 -119 180 l-104 161 -159 0 -158 0 0 -180 0
-180 -80 0 -80 0 0 560 0 560 243 0 c133 0 271 -5 307 -11z m1127 -4 c220 -42
383 -198 428 -410 28 -134 11 -288 -47 -405 -42 -88 -142 -187 -228 -228 -110
-52 -188 -62 -475 -62 l-255 0 0 560 0 560 249 0 c179 0 271 -4 328 -15z m854
-57 c30 -40 169 -224 309 -408 l255 -335 3 408 2 407 85 0 85 0 0 -560 0 -561
-77 3 -76 3 -149 195 c-82 107 -219 287 -306 400 l-157 205 -3 -402 -2 -403
-85 0 -85 0 0 560 0 560 73 0 74 0 54 -72z"/>
</g>

<!-- === LAYER 4: R and D counter shapes (filled dark to match background) === -->
<g transform="translate(0.000000,1024.000000) scale(0.100000,-0.100000)"
fill="url(#bgGrad)" stroke="none">
<path d="M3720 5291 l0 -231 168 0 c189 0 247 11 298 58 46 42 66 88 71 162 4
57 1 72 -24 120 -23 44 -39 61 -83 85 -55 30 -56 30 -242 33 l-188 4 0 -231z"/>
<path d="M4830 5111 l0 -411 163 0 c171 0 240 11 318 50 59 30 118 96 153 170
25 54 31 80 34 158 6 124 -11 199 -60 273 -45 67 -99 110 -178 141 -48 19 -79
22 -242 26 l-188 4 0 -411z"/>
</g>

</svg>